<svg width="35" height="35" viewBox="0 0 35 35" fill="none" xmlns="http://www.w3.org/2000/svg">
<rect width="35" height="35" rx="5" fill="#FFF5DF"/>
<g clip-path="url(#clip0_901_2)">
<path fill-rule="evenodd" clip-rule="evenodd" d="M20.7814 24.0625C20.9057 24.0625 21.0249 24.0131 21.1128 23.9252C21.2007 23.8373 21.2501 23.7181 21.2501 23.5937V12.5378L24.1995 15.4881C24.2875 15.5761 24.4069 15.6256 24.5314 15.6256C24.6558 15.6256 24.7752 15.5761 24.8632 15.4881C24.9512 15.4001 25.0007 15.2807 25.0007 15.1562C25.0007 15.0318 24.9512 14.9124 24.8632 14.8244L21.1132 11.0744C21.0697 11.0307 21.018 10.9961 20.961 10.9725C20.9041 10.9488 20.843 10.9367 20.7814 10.9367C20.7197 10.9367 20.6586 10.9488 20.6017 10.9725C20.5447 10.9961 20.493 11.0307 20.4495 11.0744L16.6995 14.8244C16.6115 14.9124 16.562 15.0318 16.562 15.1562C16.562 15.2807 16.6115 15.4001 16.6995 15.4881C16.7875 15.5761 16.9069 15.6256 17.0314 15.6256C17.1558 15.6256 17.2752 15.5761 17.3632 15.4881L20.3126 12.5378V23.5937C20.3126 23.7181 20.362 23.8373 20.4499 23.9252C20.5378 24.0131 20.657 24.0625 20.7814 24.0625ZM14.2189 10.9375C14.3432 10.9375 14.4624 10.9869 14.5503 11.0748C14.6382 11.1627 14.6876 11.2819 14.6876 11.4062V22.4622L17.637 19.5119C17.725 19.4239 17.8444 19.3744 17.9689 19.3744C18.0933 19.3744 18.2127 19.4239 18.3007 19.5119C18.3887 19.5999 18.4382 19.7193 18.4382 19.8437C18.4382 19.9682 18.3887 20.0876 18.3007 20.1756L14.5507 23.9256C14.5072 23.9693 14.4555 24.0039 14.3985 24.0275C14.3416 24.0512 14.2805 24.0633 14.2189 24.0633C14.1572 24.0633 14.0961 24.0512 14.0392 24.0275C13.9822 24.0039 13.9305 23.9693 13.887 23.9256L10.137 20.1756C10.049 20.0876 9.99951 19.9682 9.99951 19.8437C9.99951 19.7193 10.049 19.5999 10.137 19.5119C10.225 19.4239 10.3444 19.3744 10.4689 19.3744C10.5933 19.3744 10.7127 19.4239 10.8007 19.5119L13.7501 22.4622V11.4062C13.7501 11.2819 13.7995 11.1627 13.8874 11.0748C13.9753 10.9869 14.0945 10.9375 14.2189 10.9375V10.9375Z" fill="#FFBE28"/>
</g>
<defs>
<clipPath id="clip0_901_2">
<rect width="15" height="15" fill="white" transform="translate(10 10)"/>
</clipPath>
</defs>
</svg>
