<svg width="35" height="35" viewBox="0 0 35 35" fill="none" xmlns="http://www.w3.org/2000/svg">
<rect width="35" height="35" rx="5" fill="#D4E8C9"/>
<g clip-path="url(#clip0_851_17)">
<path d="M24.5333 11.8188C24.6209 11.9066 24.6701 12.0256 24.6701 12.1497C24.6701 12.2738 24.6209 12.3928 24.5333 12.4806L23.5555 13.4594L21.6805 11.5844L22.6583 10.6056C22.7463 10.5178 22.8655 10.4684 22.9898 10.4684C23.114 10.4684 23.2333 10.5178 23.3212 10.6056L24.5333 11.8178V11.8188ZM22.8927 14.1213L21.0177 12.2463L14.6305 18.6344C14.5789 18.686 14.5401 18.7489 14.5171 18.8181L13.7624 21.0813C13.7487 21.1225 13.7468 21.1668 13.7568 21.2091C13.7668 21.2514 13.7884 21.29 13.8191 21.3208C13.8499 21.3515 13.8886 21.3731 13.9309 21.3831C13.9732 21.3931 14.0174 21.3912 14.0587 21.3775L16.3218 20.6228C16.3909 20.6001 16.4539 20.5616 16.5055 20.5103L22.8927 14.1222V14.1213Z" fill="#229E03"/>
<path fill-rule="evenodd" clip-rule="evenodd" d="M10.9375 22.6562C10.9375 23.0292 11.0857 23.3869 11.3494 23.6506C11.6131 23.9143 11.9708 24.0625 12.3438 24.0625H22.6562C23.0292 24.0625 23.3869 23.9143 23.6506 23.6506C23.9143 23.3869 24.0625 23.0292 24.0625 22.6562V17.0312C24.0625 16.9069 24.0131 16.7877 23.9252 16.6998C23.8373 16.6119 23.7181 16.5625 23.5938 16.5625C23.4694 16.5625 23.3502 16.6119 23.2623 16.6998C23.1744 16.7877 23.125 16.9069 23.125 17.0312V22.6562C23.125 22.7806 23.0756 22.8998 22.9877 22.9877C22.8998 23.0756 22.7806 23.125 22.6562 23.125H12.3438C12.2194 23.125 12.1002 23.0756 12.0123 22.9877C11.9244 22.8998 11.875 22.7806 11.875 22.6562V12.3438C11.875 12.2194 11.9244 12.1002 12.0123 12.0123C12.1002 11.9244 12.2194 11.875 12.3438 11.875H18.4375C18.5618 11.875 18.681 11.8256 18.769 11.7377C18.8569 11.6498 18.9062 11.5306 18.9062 11.4062C18.9062 11.2819 18.8569 11.1627 18.769 11.0748C18.681 10.9869 18.5618 10.9375 18.4375 10.9375H12.3438C11.9708 10.9375 11.6131 11.0857 11.3494 11.3494C11.0857 11.6131 10.9375 11.9708 10.9375 12.3438V22.6562Z" fill="#229E03"/>
</g>
<defs>
<clipPath id="clip0_851_17">
<rect width="15" height="15" fill="white" transform="translate(10 10)"/>
</clipPath>
</defs>
</svg>
