<svg width="21" height="21" viewBox="0 0 21 21" fill="none" xmlns="http://www.w3.org/2000/svg">
                                    <g clip-path="url(#clip0_350_88)">
                                        <path d="M11.1562 3.52669C12.0146 2.62238 13.4951 2.36381 15.2408 2.53969C16.8604 2.70244 18.5259 3.22613 19.6875 3.71175V16.7357C18.4826 16.2763 16.9221 15.8274 15.3733 15.6726C13.9374 15.5269 12.3834 15.6214 11.1562 16.3183V3.52669ZM10.5 2.34019C9.20719 1.2285 7.33294 1.06312 5.62669 1.23375C3.63956 1.43456 1.63406 2.11575 0.384563 2.68406C0.269914 2.73621 0.172693 2.82024 0.104503 2.92613C0.0363125 3.03202 3.4875e-05 3.1553 0 3.28125L0 17.7188C3.04001e-05 17.8286 0.0276113 17.9366 0.0802162 18.033C0.132821 18.1294 0.208769 18.211 0.301102 18.2704C0.393435 18.3298 0.499202 18.3651 0.608716 18.3731C0.718229 18.381 0.827987 18.3614 0.927938 18.3159C2.08556 17.7909 3.95063 17.1596 5.75794 16.9772C7.60725 16.7908 9.15731 17.0914 9.98812 18.1283C10.0496 18.2049 10.1275 18.2668 10.2161 18.3093C10.3047 18.3518 10.4017 18.3738 10.5 18.3738C10.5983 18.3738 10.6953 18.3518 10.7839 18.3093C10.8725 18.2668 10.9504 18.2049 11.0119 18.1283C11.8427 17.0914 13.3928 16.7908 15.2408 16.9772C17.0494 17.1596 18.9158 17.7909 20.0721 18.3159C20.172 18.3614 20.2818 18.381 20.3913 18.3731C20.5008 18.3651 20.6066 18.3298 20.6989 18.2704C20.7912 18.211 20.8672 18.1294 20.9198 18.033C20.9724 17.9366 21 17.8286 21 17.7188V3.28125C21 3.1553 20.9637 3.03202 20.8955 2.92613C20.8273 2.82024 20.7301 2.73621 20.6154 2.68406C19.3659 2.11575 17.3604 1.43456 15.3733 1.23375C13.6671 1.06181 11.7928 1.2285 10.5 2.34019Z" fill="currentColor" />
                                    </g>
                                    <defs>
                                        <clipPath id="clip0_350_88">
                                            <rect width="21" height="21" fill="currentColor" />
                                        </clipPath>
                                    </defs>
                                </svg>