<svg width="35" height="35" viewBox="0 0 35 35" fill="none" xmlns="http://www.w3.org/2000/svg">
<rect width="35" height="35" rx="5" fill="#F4DFD7"/>
<path d="M15.1562 15.1562C15.2806 15.1562 15.3998 15.2056 15.4877 15.2935C15.5756 15.3815 15.625 15.5007 15.625 15.625V21.25C15.625 21.3743 15.5756 21.4935 15.4877 21.5815C15.3998 21.6694 15.2806 21.7188 15.1562 21.7188C15.0319 21.7188 14.9127 21.6694 14.8248 21.5815C14.7369 21.4935 14.6875 21.3743 14.6875 21.25V15.625C14.6875 15.5007 14.7369 15.3815 14.8248 15.2935C14.9127 15.2056 15.0319 15.1562 15.1562 15.1562V15.1562ZM17.5 15.1562C17.6243 15.1562 17.7435 15.2056 17.8315 15.2935C17.9194 15.3815 17.9688 15.5007 17.9688 15.625V21.25C17.9688 21.3743 17.9194 21.4935 17.8315 21.5815C17.7435 21.6694 17.6243 21.7188 17.5 21.7188C17.3757 21.7188 17.2565 21.6694 17.1685 21.5815C17.0806 21.4935 17.0312 21.3743 17.0312 21.25V15.625C17.0312 15.5007 17.0806 15.3815 17.1685 15.2935C17.2565 15.2056 17.3757 15.1562 17.5 15.1562V15.1562ZM20.3125 15.625C20.3125 15.5007 20.2631 15.3815 20.1752 15.2935C20.0873 15.2056 19.9681 15.1562 19.8438 15.1562C19.7194 15.1562 19.6002 15.2056 19.5123 15.2935C19.4244 15.3815 19.375 15.5007 19.375 15.625V21.25C19.375 21.3743 19.4244 21.4935 19.5123 21.5815C19.6002 21.6694 19.7194 21.7188 19.8438 21.7188C19.9681 21.7188 20.0873 21.6694 20.1752 21.5815C20.2631 21.4935 20.3125 21.3743 20.3125 21.25V15.625Z" fill="#FF0000"/>
<path fill-rule="evenodd" clip-rule="evenodd" d="M23.5938 12.8125C23.5938 13.0611 23.495 13.2996 23.3192 13.4754C23.1433 13.6512 22.9049 13.75 22.6562 13.75H22.1875V22.1875C22.1875 22.6848 21.99 23.1617 21.6383 23.5133C21.2867 23.865 20.8098 24.0625 20.3125 24.0625H14.6875C14.1902 24.0625 13.7133 23.865 13.3617 23.5133C13.01 23.1617 12.8125 22.6848 12.8125 22.1875V13.75H12.3438C12.0951 13.75 11.8567 13.6512 11.6808 13.4754C11.505 13.2996 11.4062 13.0611 11.4062 12.8125V11.875C11.4062 11.6264 11.505 11.3879 11.6808 11.2121C11.8567 11.0363 12.0951 10.9375 12.3438 10.9375H15.625C15.625 10.6889 15.7238 10.4504 15.8996 10.2746C16.0754 10.0988 16.3139 10 16.5625 10H18.4375C18.6861 10 18.9246 10.0988 19.1004 10.2746C19.2762 10.4504 19.375 10.6889 19.375 10.9375H22.6562C22.9049 10.9375 23.1433 11.0363 23.3192 11.2121C23.495 11.3879 23.5938 11.6264 23.5938 11.875V12.8125ZM13.8606 13.75L13.75 13.8053V22.1875C13.75 22.4361 13.8488 22.6746 14.0246 22.8504C14.2004 23.0262 14.4389 23.125 14.6875 23.125H20.3125C20.5611 23.125 20.7996 23.0262 20.9754 22.8504C21.1512 22.6746 21.25 22.4361 21.25 22.1875V13.8053L21.1394 13.75H13.8606ZM12.3438 12.8125V11.875H22.6562V12.8125H12.3438Z" fill="#FF0000"/>
</svg>
