<svg width="35" height="35" viewBox="0 0 35 35" fill="none" xmlns="http://www.w3.org/2000/svg">
<rect width="35" height="35" rx="5" fill="#DCD7DF"/>
<path fill-rule="evenodd" clip-rule="evenodd" d="M14.3555 11.5431C14.399 11.4995 14.4508 11.4648 14.5077 11.4412C14.5647 11.4176 14.6257 11.4054 14.6874 11.4054C14.749 11.4054 14.8101 11.4176 14.867 11.4412C14.924 11.4648 14.9757 11.4995 15.0192 11.5431L20.6442 17.1681C20.6879 17.2117 20.7225 17.2634 20.7462 17.3203C20.7698 17.3773 20.7819 17.4383 20.7819 17.5C20.7819 17.5617 20.7698 17.6227 20.7462 17.6797C20.7225 17.7366 20.6879 17.7883 20.6442 17.8319L15.0192 23.4569C14.9312 23.5449 14.8118 23.5943 14.6874 23.5943C14.5629 23.5943 14.4435 23.5449 14.3555 23.4569C14.2675 23.3689 14.218 23.2495 14.218 23.125C14.218 23.0005 14.2675 22.8811 14.3555 22.7931L19.6495 17.5L14.3555 12.2069C14.3118 12.1633 14.2772 12.1116 14.2536 12.0547C14.2299 11.9977 14.2178 11.9367 14.2178 11.875C14.2178 11.8133 14.2299 11.7523 14.2536 11.6953C14.2772 11.6384 14.3118 11.5867 14.3555 11.5431V11.5431Z" fill="#563090"/>
</svg>
